<?xml version="1.0" encoding="utf-8"?>
<!-- Generator: Adobe Illustrator 19.2.1, SVG Export Plug-In . SVG Version: 6.00 Build 0)  -->
<svg version="1.1" id="layer" xmlns="http://www.w3.org/2000/svg" xmlns:xlink="http://www.w3.org/1999/xlink" x="0px" y="0px"
	 viewBox="0 0 652 652" style="enable-background:new 0 0 652 652;" xml:space="preserve">
<style type="text/css">
	.st0{fill:#F7AF31;}
	.st1{fill:#F15025;}
</style>
<path class="st0" d="M626.5,282.9c0-18.4-10.3-32.6-22.1-32.6c-11.8,0-22.2,14.2-22.2,32.6c0,15.9,7.7,25.7,17.4,28.1
	c-0.1,3.9-0.7,40.1-4.4,80c0,0,3.2,1.4,9.3,1.4c6.1,0,10.4-1.3,10.4-1.3c-3.6-35.3-5.1-69.3-5.5-78.5c0-0.1-1.1,0.3-2.7-0.1
	c-1.3-0.3-2-0.9-2-0.9h0.2c1.3,0,2.6-0.2,3.5-0.4c0,0,0.1,0,0.1,0l0.8-0.2C619,308.3,626.5,298.5,626.5,282.9L626.5,282.9z
	 M626.5,282.9"/>
<path class="st1" d="M48.2,340.4c-12,3.1-21.7,8.4-21.7,22.3c0,13.5,9.2,18.4,19.2,18.4c7.8,0,16.2-2.9,22.4-10.3v8.6h20.5v-47.7
	c0-18.2-9.4-24.7-28-24.7c-10,0-18.9,1.9-27.1,4.5L32,329.3c7.9-2.3,15.1-4.1,22.5-4.1c9,0,13.5,2.5,13.5,9.6v0.7L48.2,340.4z
	 M54.9,366.6c-4,0-7.2-1.9-7.2-6.8c0-5.8,4.8-9.2,15-12l5.3-1.6v14.7C64,364.4,59,366.6,54.9,366.6L54.9,366.6z M99.2,284.3v95.2
	h20.5V282L99.2,284.3z M131.2,284.3v95.2h20.6V282L131.2,284.3z M163.2,310v69.4h20.6v-42.2c7.4-4.7,16.4-6,24.1-5.7l1.1-24.4
	c-13.4,0-20.2,5.5-25.2,23.6v-23.2L163.2,310z M277.9,328.3l-1.3-3.2c-4.1-10.1-13.4-18.2-28.9-18.1c-18,0-36.4,11-36.4,36.8
	c0,22.5,13.7,37.3,37.6,37.3c13.1,0,22.5-4,27.8-7.5l1.3-20.3c-8.2,6.2-19.2,8.4-26.8,8.4c-7.4,0-12.7-2.2-16-5.8l38.4-17.9
	C277.8,336.1,279.6,332.4,277.9,328.3L277.9,328.3z M230.7,342c0-13.2,8.2-18.9,17.4-18.9c6.6,0,9.8,3.1,11.9,7l-29.2,13.6
	C230.7,343.2,230.7,342.6,230.7,342L230.7,342z M321.6,325.2c5.5,0,11,1.8,15,3.9v-19.4c-6-1.9-13.1-2.6-18.7-2.6
	c-23.3,0-35.4,14.6-35.4,37c0,22.4,12.1,37,35.5,37c6.9-0.1,13.8-1.3,20.3-3.7v-19.2c-5.1,2.4-11,4.3-16.6,4.3
	c-10.8,0-18.6-5.8-18.6-18.4C303.1,331.5,310.9,325.2,321.6,325.2L321.6,325.2z M346.8,379.5h20.5v-71.8l-20.5,2.3V379.5z
	 M357,277.9c-8.2,0-13.3,5-13.3,11.9c0,7,5,12,13.3,12c8.2,0,13-5,13-12C370,282.8,365.2,277.9,357,277.9L357,277.9z M378.8,310
	v91.6h20.5v-22.2c3.6,1.1,7.3,1.7,11.1,1.6c20.5,0,36-13.7,36-40c0-23.6-10.8-34-25.7-34c-9.7,0-16.5,4.4-21.4,9.3v-8.7L378.8,310z
	 M410,323.9c11.6,0,15,9.2,14.9,19.3c0.1,13.7-5.9,21.7-18.7,21.7c-2.3,0-4.6-0.2-6.9-0.7v-37.1C402.3,325.2,405.7,323.9,410,323.9
	L410,323.9z M518.2,328.3l-1.3-3.2c-4.1-10.1-13.4-18.2-28.9-18.1c-18,0-36.4,11-36.4,36.8c0,22.5,13.7,37.3,37.6,37.3
	c13.1,0,22.5-4,27.8-7.5l1.3-20.3c-8.2,6.2-19.2,8.4-26.8,8.4c-7.4,0-12.7-2.2-16-5.8l38.4-17.9
	C518.1,336.1,519.9,332.4,518.2,328.3L518.2,328.3z M470.9,342c0-13.2,8.2-18.9,17.4-18.9c6.6,0,9.8,3.1,11.9,7L471,343.8
	C471,343.2,470.9,342.6,470.9,342L470.9,342z M543.7,329c0-4.4,6.1-5.6,11.9-5.6c5.7,0,12.7,0.9,21,4.6l-0.6-17.1
	c-5.2-2.3-12.1-4-21-4c-22.7,0-30.1,10.9-30.1,22.6c0,28.4,35.2,17,35.2,28.5c0,4.7-5.1,5.8-10.1,5.8c-8.8,0-17.5-2.3-25.2-6.7
	l-1.2,18.1c7.1,3.6,16.4,5.8,26.3,5.8c21.8,0,30.2-10.7,30.2-24.6C580.2,329,543.7,339.8,543.7,329L543.7,329z M543.7,329"/>
</svg>
